<svg width="32" height="32" viewBox="0 0 32 32" fill="none" xmlns="http://www.w3.org/2000/svg">
<path d="M10.6667 9.33333V4M21.3333 9.33333V4M9.33333 14.6667H22.6667M6.66667 28H25.3333C26.0406 28 26.7189 27.719 27.219 27.219C27.719 26.7189 28 26.0406 28 25.3333V9.33333C28 8.62609 27.719 7.94781 27.219 7.44772C26.7189 6.94762 26.0406 6.66667 25.3333 6.66667H6.66667C5.95942 6.66667 5.28115 6.94762 4.78105 7.44772C4.28095 7.94781 4 8.62609 4 9.33333V25.3333C4 26.0406 4.28095 26.7189 4.78105 27.219C5.28115 27.719 5.95942 28 6.66667 28Z" stroke="#8C92B2" stroke-width="3" stroke-linecap="round" stroke-linejoin="round"/>
</svg>
