<svg width="32" height="32" viewBox="0 0 32 32" fill="none" xmlns="http://www.w3.org/2000/svg">
<path d="M28 17.6733C24.1873 19.215 20.1126 20.005 16 20C11.756 20 7.70667 19.1733 4 17.6733M21.3333 7.99999V5.33332C21.3333 4.62608 21.0524 3.9478 20.5523 3.4477C20.0522 2.94761 19.3739 2.66666 18.6667 2.66666H13.3333C12.6261 2.66666 11.9478 2.94761 11.4477 3.4477C10.9476 3.9478 10.6667 4.62608 10.6667 5.33332V7.99999M16 16H16.0133M6.66667 26.6667H25.3333C26.0406 26.6667 26.7189 26.3857 27.219 25.8856C27.719 25.3855 28 24.7072 28 24V10.6667C28 9.95941 27.719 9.28114 27.219 8.78104C26.7189 8.28094 26.0406 7.99999 25.3333 7.99999H6.66667C5.95942 7.99999 5.28115 8.28094 4.78105 8.78104C4.28095 9.28114 4 9.95941 4 10.6667V24C4 24.7072 4.28095 25.3855 4.78105 25.8856C5.28115 26.3857 5.95942 26.6667 6.66667 26.6667Z" stroke="#8C92B2" stroke-width="3" stroke-linecap="round" stroke-linejoin="round"/>
</svg>
