<svg width="32" height="32" viewBox="0 0 32 32" fill="none" xmlns="http://www.w3.org/2000/svg">
<path d="M16 5.6435C16.728 4.81821 17.69 4.23416 18.7581 3.96906C19.8262 3.70397 20.9496 3.7704 21.979 4.15951C23.0084 4.54863 23.8949 5.24199 24.5205 6.14732C25.1461 7.05265 25.4812 8.12703 25.4812 9.2275C25.4812 10.328 25.1461 11.4024 24.5205 12.3077C23.8949 13.213 23.0084 13.9064 21.979 14.2955C20.9496 14.6846 19.8262 14.751 18.7581 14.4859C17.69 14.2208 16.728 13.6368 16 12.8115M20.0635 28.1905H3.80957V26.836C3.80957 24.6806 4.6658 22.6134 6.18991 21.0893C7.71401 19.5652 9.78114 18.709 11.9366 18.709C14.092 18.709 16.1591 19.5652 17.6832 21.0893C19.2073 22.6134 20.0635 24.6806 20.0635 26.836V28.1905ZM20.0635 28.1905H28.1905V26.836C28.1907 25.4093 27.8154 24.0077 27.1021 22.7721C26.3889 21.5365 25.363 20.5104 24.1275 19.7969C22.892 19.0835 21.4905 18.7079 20.0638 18.7078C18.6371 18.7078 17.2356 19.0833 16 19.7966M17.3545 9.2275C17.3545 10.6644 16.7837 12.0425 15.7677 13.0586C14.7516 14.0747 13.3735 14.6455 11.9366 14.6455C10.4996 14.6455 9.12153 14.0747 8.10546 13.0586C7.08939 12.0425 6.51857 10.6644 6.51857 9.2275C6.51857 7.79056 7.08939 6.41247 8.10546 5.3964C9.12153 4.38033 10.4996 3.80951 11.9366 3.80951C13.3735 3.80951 14.7516 4.38033 15.7677 5.3964C16.7837 6.41247 17.3545 7.79056 17.3545 9.2275Z" stroke="#8C92B2" stroke-width="3" stroke-linecap="round" stroke-linejoin="round"/>
</svg>
